<?xml version="1.0" encoding="utf-8"?>
<svg viewBox="295.704 26.823 692.286 579.544" width="692.286" height="579.544" xmlns="http://www.w3.org/2000/svg" xmlns:bx="https://boxy-svg.com">
  <g style="" transform="matrix(2.455593, 0, 0, 2.368993, 18.857616, -219.321152)">
    <path d="M 234.167 106.642 L 264.36 106.642 C 273.713 106.642 270.25 128.952 270.25 138.306 L 281.296 164.08 C 281.296 173.433 273.713 181.016 264.36 181.016 L 234.167 181.016 C 224.814 181.016 217.231 173.433 217.231 164.08 L 229.013 139.778 C 229.013 130.425 224.814 106.642 234.167 106.642 Z" style="fill: rgb(169, 169, 169);"/>
    <path d="M 733 363 m -89.25 0 a 89.25 89.25 0 1 0 178.5 0 a 89.25 89.25 0 1 0 -178.5 0 Z M 733 363 m -71.054 0 a 71.054 71.054 0 0 1 142.108 0 a 71.054 71.054 0 0 1 -142.108 0 Z" style="fill: rgb(169, 169, 169);" transform="matrix(-0.437285, 0.899323, -0.899323, -0.437285, 895.879879, -242.86955)" bx:shape="ring 733 363 71.054 71.054 89.25 89.25 1@4ca872fb"/>
    <path d="M 184 421.743 L 186.215 435.827 L 200.572 438 L 186.215 440.173 L 184 454.257 L 181.785 440.173 L 167.428 438 L 181.785 435.827 Z" style="fill: rgb(248, 248, 248);" transform="matrix(-0.475608, 0.879657, -0.865089, -0.502553, 681.402266, 333.124561)" bx:shape="star 184 438 16.572 16.257 0.189 4 1@cf981766"/>
    <path d="M 184 426.188 L 185.388 436.421 L 194.385 438 L 185.388 439.579 L 184 449.812 L 182.612 439.579 L 173.615 438 L 182.612 436.421 Z" style="fill: rgb(248, 248, 248);" transform="matrix(-0.880709, 0.473658, -0.4478, -0.894616, 592.848369, 602.469924)" bx:shape="star 184 438 10.385 11.812 0.189 4 1@ef4374be"/>
    <path d="M 184 422.757 L 185.764 435.963 L 197.198 438 L 185.764 440.037 L 184 453.243 L 182.236 440.037 L 170.802 438 L 182.236 435.963 Z" style="fill: rgb(248, 248, 248);" transform="matrix(-0.997491, 0.070796, -0.065913, -0.997837, 464.528241, 699.666562)" bx:shape="star 184 438 13.198 15.243 0.189 4 1@d3aea90c"/>
  </g>
  <g style="" transform="matrix(1.893546, 0, 0, 1.826768, 295.704468, 26.823137)"/>
  <path d="M 321.523 221.489 H 371.54 V 321.523 H 471.574 V 371.54 H 371.54 V 471.574 H 321.523 V 371.54 H 221.489 V 321.523 H 321.523 Z" style="fill: rgb(170, 101, 180);" transform="matrix(0.999994, 0.003413, -0.003413, 0.999994, 283.232269, 41.859314)" bx:shape="cross 221.489 221.489 250.085 250.085 50.017 50.017 0.5 1@daf20487"/>
</svg>