<?xml version="1.0" encoding="utf-8"?>
<svg viewBox="0 0 500 500" xmlns="http://www.w3.org/2000/svg" xmlns:bx="https://boxy-svg.com">
  <defs>
    <linearGradient gradientUnits="userSpaceOnUse" x1="150.657" y1="82.952" x2="150.657" y2="585.897" id="gradient-0" gradientTransform="matrix(0.74905, -0.662513, 0.683749, 0.77306, -55.798226, 111.53228)">
      <stop offset="0" style="stop-color: rgb(158, 82, 189);"/>
      <stop offset="1" style="stop-color: rgb(169, 140, 209);"/>
    </linearGradient>
  </defs>
  <rect x="-35.346" y="-5.891" width="575.11" height="502.945" style="fill: url(#gradient-0);"/>
  <path d="M 198 391.588 L 206.89 436.617 L 245.444 447 L 206.89 457.383 L 198 502.412 L 189.11 457.383 L 150.556 447 L 189.11 436.617 Z" style="fill: rgb(255, 255, 255);" transform="matrix(-0.943407, -0.331638, 0.331638, -0.943407, 129.707044, 789.317351)" bx:shape="star 198 447 47.444 55.412 0.265 4 1@7ed25457"/>
  <path d="M 198 404.267 L 204.856 438.993 L 234.588 447 L 204.856 455.007 L 198 489.733 L 191.144 455.007 L 161.412 447 L 191.144 438.993 Z" style="fill: rgb(255, 255, 255);" transform="matrix(-0.985541, 0.169438, -0.169438, -0.985541, 649.730317, 652.731065)" bx:shape="star 198 447 36.588 42.733 0.265 4 1@e0e3f88d"/>
  <path d="M 198 401.364 L 205.725 438.449 L 239.228 447 L 205.725 455.551 L 198 492.636 L 190.275 455.551 L 156.772 447 L 190.275 438.449 Z" style="fill: rgb(255, 255, 255);" transform="matrix(-0.981442, -0.19176, 0.19176, -0.981442, 197.330515, 671.237586)" bx:shape="star 198 447 41.228 45.636 0.265 4 1@6de28e5b"/>
  <path d="M 198 421.3 L 201.765 442.184 L 218.09 447 L 201.765 451.816 L 198 472.7 L 194.235 451.816 L 177.91 447 L 194.235 442.184 Z" style="fill: rgb(255, 255, 255);" transform="matrix(-0.985541, 0.169438, -0.169438, -0.985541, 618.06591, 726.368488)" bx:shape="star 198 447 20.09 25.7 0.265 4 1@edc2d7b8"/>
  <path d="M 198 409.876 L 203.956 440.044 L 229.785 447 L 203.956 453.956 L 198 484.124 L 192.044 453.956 L 166.215 447 L 192.044 440.044 Z" style="fill: rgb(255, 255, 255);" transform="matrix(-0.976839, 0.213974, -0.213974, -0.976839, 597.588415, 540.346629)" bx:shape="star 198 447 31.785 37.124 0.265 4 1@46c48b26"/>
  <path d="M 198 424.032 L 201.685 442.696 L 217.665 447 L 201.685 451.304 L 198 469.968 L 194.315 451.304 L 178.335 447 L 194.315 442.696 Z" style="fill: rgb(255, 255, 255);" transform="matrix(-0.999994, -0.003367, 0.003367, -0.999994, 399.333739, 573.972817)" bx:shape="star 198 447 19.665 22.968 0.265 4 1@1053a2d7"/>
  <path d="M 198 420.484 L 202.254 442.031 L 220.703 447 L 202.254 451.969 L 198 473.516 L 193.746 451.969 L 175.297 447 L 193.746 442.031 Z" style="fill: rgb(255, 255, 255);" transform="matrix(-0.985003, -0.172535, 0.172535, -0.985003, 157.615517, 594.417634)" bx:shape="star 198 447 22.703 26.516 0.265 4 1@c72309fb"/>
  <path d="M 198 386.5 L 207.706 435.663 L 249.8 447 L 207.706 458.337 L 198 507.5 L 188.294 458.337 L 146.2 447 L 188.294 435.663 Z" style="fill: rgb(255, 255, 255);" transform="matrix(-0.969353, 0.245673, -0.245673, -0.969353, 540.192063, 767.031093)" bx:shape="star 198 447 51.8 60.5 0.265 4 1@bd196fda"/>
  <path d="M 198 401.364 L 205.725 438.449 L 239.228 447 L 205.725 455.551 L 198 492.636 L 190.275 455.551 L 156.772 447 L 190.275 438.449 Z" style="fill: rgb(255, 255, 255);" transform="matrix(-0.993195, -0.116463, 0.116463, -0.993195, 580.149097, 555.544211)" bx:shape="star 198 447 41.228 45.636 0.265 4 1@6de28e5b"/>
</svg>