<?xml version="1.0" encoding="utf-8"?>
<svg viewBox="295.704 26.823 692.286 579.544" width="692.286" height="579.544" xmlns="http://www.w3.org/2000/svg" xmlns:bx="https://boxy-svg.com">
  <g style="" transform="matrix(2.455593, 0, 0, 2.368993, 18.857616, -219.321152)">
    <path d="M 234.167 106.642 L 264.36 106.642 C 273.713 106.642 270.25 128.952 270.25 138.306 L 281.296 164.08 C 281.296 173.433 273.713 181.016 264.36 181.016 L 234.167 181.016 C 224.814 181.016 217.231 173.433 217.231 164.08 L 229.013 139.778 C 229.013 130.425 224.814 106.642 234.167 106.642 Z" style="fill: rgb(210, 139, 221);"/>
    <path d="M 733 363 m -89.25 0 a 89.25 89.25 0 1 0 178.5 0 a 89.25 89.25 0 1 0 -178.5 0 Z M 733 363 m -71.054 0 a 71.054 71.054 0 0 1 142.108 0 a 71.054 71.054 0 0 1 -142.108 0 Z" style="fill: rgb(210, 139, 221);" transform="matrix(-0.437285, 0.899323, -0.899323, -0.437285, 895.879879, -242.86955)" bx:shape="ring 733 363 71.054 71.054 89.25 89.25 1@4ca872fb"/>
  </g>
  <g transform="matrix(0.912078, 0.311669, -0.309625, 0.906095, 180.704681, -153.912415)" style="">
    <rect x="524.449" y="428.834" width="192.897" height="50.358" style="fill: rgb(210, 139, 221);" transform="matrix(0.971374, 0.237554, -0.237554, 0.971374, 94.046028, -125.111694)"/>
    <rect x="524.449" y="428.834" width="192.897" height="50.358" style="fill: rgb(210, 139, 221);" transform="matrix(-0.257053, 0.966397, -0.966397, -0.257053, 1286.799805, -119.965897)"/>
  </g>
</svg>