<?xml version="1.0" encoding="utf-8"?>
<svg viewBox="0 0 500 500" xmlns="http://www.w3.org/2000/svg" xmlns:bx="https://boxy-svg.com">
  <g style="" transform="matrix(1.166085, 0, 0, 1.124962, -54.532242, 0.900552)">
    <path d="M 321.121 271.233 C 321.121 307.868 286.267 336.094 249.632 336.094 C 212.997 336.094 166.672 305.205 175.934 269.76 C 185.507 233.125 210.052 262.336 248.159 244.663 C 286.266 226.99 321.121 234.598 321.121 271.233 Z" style="fill: rgb(165, 234, 202);"/>
    <path d="M 234.167 105.547 L 264.36 105.547 C 273.713 105.547 270.25 127.857 270.25 137.211 L 281.296 162.985 C 281.296 172.338 273.713 179.921 264.36 179.921 L 234.167 179.921 C 224.814 179.921 217.231 172.338 217.231 162.985 L 229.013 138.683 C 229.013 129.33 224.814 105.547 234.167 105.547 Z" style="fill: rgb(216, 216, 216);"/>
    <path d="M 733 363 m -89.25 0 a 89.25 89.25 0 1 0 178.5 0 a 89.25 89.25 0 1 0 -178.5 0 Z M 733 363 m -71.054 0 a 71.054 71.054 0 0 1 142.108 0 a 71.054 71.054 0 0 1 -142.108 0 Z" style="fill: rgb(216, 216, 216);" transform="matrix(-0.437285, 0.899323, -0.899323, -0.437285, 895.879879, -243.964383)" bx:shape="ring 733 363 71.054 71.054 89.25 89.25 1@4ca872fb"/>
  </g>
  <g style="" transform="matrix(1.166085, 0, 0, 1.124962, -54.532242, 0.900552)">
    <path d="M 900 206.534 L 903.871 217.671 L 915.66 217.912 L 906.264 225.035 L 909.678 236.321 L 900 229.586 L 890.322 236.321 L 893.736 225.035 L 884.34 217.912 L 896.129 217.671 Z" style="fill: rgb(165, 234, 202);" transform="matrix(-0.98387, 0.178885, -0.178885, -0.98387, 1247.171099, 209.608838)" bx:shape="star 900 223 16.466 16.466 0.4 5 1@00b318c4"/>
    <path d="M 677 84.889 L 682.434 100.521 L 698.98 100.858 L 685.792 110.857 L 690.584 126.697 L 677 117.244 L 663.416 126.697 L 668.208 110.857 L 655.02 100.858 L 671.566 100.521 Z" style="fill: rgb(165, 234, 202);" transform="matrix(-0.509802, 0.860292, -0.860292, -0.509802, 594.159245, -418.865397)" bx:shape="star 677 108 23.111 23.111 0.4 5 1@bd4d0697"/>
    <path d="M 843 64.426 L 849.953 84.43 L 871.127 84.861 L 854.251 97.656 L 860.383 117.926 L 843 105.83 L 825.617 117.926 L 831.749 97.656 L 814.873 84.861 L 836.047 84.43 Z" style="fill: rgb(165, 234, 202);" transform="matrix(-0.946164, 0.323688, -0.323688, -0.946164, 1106.392744, -124.037156)" bx:shape="star 843 94 29.574 29.574 0.4 5 1@5d8cc16d"/>
  </g>
</svg>