<?xml version="1.0" encoding="utf-8"?>
<svg viewBox="0 0 500 500" xmlns="http://www.w3.org/2000/svg" xmlns:bx="https://boxy-svg.com">
  <g>
    <rect x="175.939" y="62.071" width="154.888" height="70.677" style="fill: rgb(181, 123, 212);" rx="24.06" ry="24.06"/>
    <path d="M 106.015 116.539 C 299.192 113.089 396.993 116.539 396.993 116.539 C 433.95 116.539 463.91 146.499 463.91 183.456 L 463.91 372.179 C 463.91 409.136 433.95 439.096 396.993 439.096 L 106.015 439.096 C 69.058 439.096 39.098 409.136 39.098 372.179 L 39.098 183.456 C 39.098 146.499 69.058 116.539 106.015 116.539 Z" style="fill: rgb(181, 123, 212);"/>
    <path d="M 106.01 116.039 C 299.198 112.589 395.953 116.002 397.002 116.039 C 415.579 116.063 432.491 123.612 444.664 135.785 C 456.837 147.958 464.388 164.875 464.41 183.456 L 464.41 372.179 C 464.388 390.76 456.837 407.677 444.664 419.85 C 432.491 432.023 415.574 439.574 396.993 439.596 L 106.015 439.596 C 87.434 439.574 70.517 432.023 58.344 419.85 C 46.171 407.677 38.62 390.76 38.598 372.179 L 38.598 183.456 C 38.62 164.875 46.171 147.958 58.344 135.785 C 70.517 123.612 87.431 116.062 106.01 116.039 Z M 59.051 136.492 C 47.005 148.539 39.576 165.08 39.598 183.456 L 39.598 372.179 C 39.576 390.555 47.005 407.096 59.051 419.143 C 71.098 431.189 87.639 438.618 106.015 438.596 L 396.993 438.596 C 415.369 438.618 431.91 431.189 443.957 419.143 C 456.003 407.096 463.432 390.555 463.41 372.179 L 463.41 183.456 C 463.432 165.08 456.003 148.539 443.957 136.492 C 431.91 124.446 415.369 117.017 396.993 117.039 C 396.993 117.039 299.188 113.589 106.024 117.039 C 87.648 117.017 71.098 124.446 59.051 136.492 Z" style="fill: none;"/>
    <path d="M 106.015 116.039 L 396.993 116.039 C 415.574 116.061 432.491 123.612 444.664 135.785 C 456.837 147.958 464.388 164.875 464.41 183.456 L 464.41 372.179 C 464.388 390.76 456.837 407.677 444.664 419.85 C 432.491 432.023 415.574 439.574 396.993 439.596 L 106.015 439.596 C 87.434 439.574 70.517 432.023 58.344 419.85 C 46.171 407.677 38.62 390.76 38.598 372.179 L 38.598 183.456 C 38.62 164.875 46.171 147.958 58.344 135.785 C 70.517 123.612 87.434 116.061 106.015 116.039 Z M 59.051 136.492 C 47.005 148.539 39.576 165.08 39.598 183.456 L 39.598 372.179 C 39.576 390.555 47.005 407.096 59.051 419.143 C 71.098 431.19 87.639 438.618 106.015 438.596 L 396.993 438.596 C 415.369 438.618 431.91 431.19 443.957 419.143 C 456.004 407.096 463.432 390.555 463.41 372.179 L 463.41 183.456 C 463.432 165.08 456.004 148.539 443.957 136.492 C 431.91 124.445 415.369 117.017 396.993 117.039 L 106.015 117.039 C 87.639 117.017 71.098 124.445 59.051 136.492 Z" style="fill: none;"/>
    <path d="M 378 315 m -104.251 0 a 104.251 104.251 0 1 0 208.502 0 a 104.251 104.251 0 1 0 -208.502 0 Z M 378 315 m -62.551 0 a 62.551 62.551 0 0 1 125.102 0 a 62.551 62.551 0 0 1 -125.102 0 Z" style="fill: rgb(255, 255, 255);" transform="matrix(-0.432731, 0.901523, -0.901523, -0.432731, 700.935525, 78.408449)" bx:shape="ring 378 315 62.551 62.551 104.251 104.251 1@66e8bfe8"/>
  </g>
</svg>