<?xml version="1.0" encoding="utf-8"?>
<svg viewBox="0 0 500 500" xmlns="http://www.w3.org/2000/svg" xmlns:bx="https://boxy-svg.com">
  <g style="" transform="matrix(1.38138, 0, 0, 1.237216, -93.685928, -19.415808)">
    <path d="M 234.167 105.547 L 264.36 105.547 C 273.713 105.547 270.25 127.857 270.25 137.211 L 281.296 162.985 C 281.296 172.338 273.713 179.921 264.36 179.921 L 234.167 179.921 C 224.814 179.921 217.231 172.338 217.231 162.985 L 229.013 138.683 C 229.013 129.33 224.814 105.547 234.167 105.547 Z" style="fill: rgb(216, 216, 216);"/>
    <path d="M 733 363 m -89.25 0 a 89.25 89.25 0 1 0 178.5 0 a 89.25 89.25 0 1 0 -178.5 0 Z M 733 363 m -1 0 a 1 1 0 0 1 2 0 a 1 1 0 0 1 -2 0 Z" style="fill: rgb(216, 216, 216);" transform="matrix(-0.437285, 0.899323, -0.899323, -0.437285, 895.879879, -243.964383)" bx:shape="ring 733 363 1 1 89.25 89.25 1@40c156c9"/>
  </g>
</svg>